<svg width="1440" height="420" viewBox="0 0 1440 420" fill="none" xmlns="http://www.w3.org/2000/svg">
<g clip-path="url(#clip0_3690_35)">
<ellipse cx="81.6309" cy="78.4463" rx="81.6309" ry="78.4463" fill="#F7CBCA"/>
<ellipse cx="244.893" cy="78.4463" rx="81.6309" ry="78.4463" fill="#F7CBCA"/>
<ellipse cx="408.154" cy="78.4463" rx="81.6309" ry="78.4463" fill="#F7CBCA"/>
<ellipse cx="570.021" cy="78.4463" rx="81.6309" ry="78.4463" fill="#F7CBCA"/>
<ellipse cx="733.283" cy="78.4463" rx="81.6309" ry="78.4463" fill="#F7CBCA"/>
<ellipse cx="896.544" cy="78.4463" rx="81.6309" ry="78.4463" fill="#F7CBCA"/>
<ellipse cx="1059.81" cy="78.4463" rx="81.6309" ry="78.4463" fill="#F7CBCA"/>
<ellipse cx="1223.07" cy="78.4463" rx="81.6309" ry="78.4463" fill="#F7CBCA"/>
<ellipse cx="1384.93" cy="78.4463" rx="81.6309" ry="78.4463" fill="#F7CBCA"/>
<ellipse cx="81.6309" cy="334.446" rx="81.6309" ry="78.4463" fill="#F7CBCA"/>
<ellipse cx="244.893" cy="334.446" rx="81.6309" ry="78.4463" fill="#F7CBCA"/>
<ellipse cx="408.154" cy="334.446" rx="81.6309" ry="78.4463" fill="#F7CBCA"/>
<ellipse cx="570.021" cy="334.446" rx="81.6309" ry="78.4463" fill="#F7CBCA"/>
<ellipse cx="733.283" cy="334.446" rx="81.6309" ry="78.4463" fill="#F7CBCA"/>
<ellipse cx="896.544" cy="334.446" rx="81.6309" ry="78.4463" fill="#F7CBCA"/>
<ellipse cx="1059.81" cy="334.446" rx="81.6309" ry="78.4463" fill="#F7CBCA"/>
<ellipse cx="1223.07" cy="334.446" rx="81.6309" ry="78.4463" fill="#F7CBCA"/>
<ellipse cx="1384.93" cy="334.446" rx="81.6309" ry="78.4463" fill="#F7CBCA"/>
<rect y="66" width="1792" height="268" fill="#F7CBCA"/>
</g>
<defs>
<clipPath id="clip0_3690_35">
<rect width="1440" height="420" fill="white"/>
</clipPath>
</defs>
</svg>
