<svg width="1467" height="80" viewBox="0 0 1467 80" fill="none" xmlns="http://www.w3.org/2000/svg">
<g clip-path="url(#clip0_3690_35)">
<ellipse cx="1385.37" cy="1.55373" rx="81.6309" ry="78.4463" transform="rotate(180 1385.37 1.55373)" fill="#F7CBCA"/>
<ellipse cx="1222.11" cy="1.55373" rx="81.6309" ry="78.4463" transform="rotate(180 1222.11 1.55373)" fill="#F7CBCA"/>
<ellipse cx="1058.85" cy="1.55373" rx="81.6309" ry="78.4463" transform="rotate(180 1058.85 1.55373)" fill="#F7CBCA"/>
<ellipse cx="896.979" cy="1.55373" rx="81.6309" ry="78.4463" transform="rotate(180 896.979 1.55373)" fill="#F7CBCA"/>
<ellipse cx="733.717" cy="1.55373" rx="81.6309" ry="78.4463" transform="rotate(180 733.717 1.55373)" fill="#F7CBCA"/>
<ellipse cx="570.456" cy="1.55373" rx="81.6309" ry="78.4463" transform="rotate(180 570.456 1.55373)" fill="#F7CBCA"/>
<ellipse cx="407.194" cy="1.55373" rx="81.6309" ry="78.4463" transform="rotate(180 407.194 1.55373)" fill="#F7CBCA"/>
<ellipse cx="243.932" cy="1.55373" rx="81.6309" ry="78.4463" transform="rotate(180 243.932 1.55373)" fill="#F7CBCA"/>
<ellipse cx="82.0656" cy="1.55373" rx="81.6309" ry="78.4463" transform="rotate(180 82.0656 1.55373)" fill="#F7CBCA"/>
<ellipse cx="-81.1961" cy="1.55373" rx="81.6309" ry="78.4463" transform="rotate(180 -81.1961 1.55373)" fill="#F7CBCA"/>
</g>
<defs>
<clipPath id="clip0_3690_35">
<rect width="1467" height="80" fill="white" transform="matrix(-1 0 0 -1 1467 80)"/>
</clipPath>
</defs>
</svg>
